<?xml version="1.0" encoding="utf-8"?>
<!-- Generator: Adobe Illustrator 15.1.0, SVG Export Plug-In  -->
<!DOCTYPE svg PUBLIC "-//W3C//DTD SVG 1.1//EN" "http://www.w3.org/Graphics/SVG/1.1/DTD/svg11.dtd" [
	<!ENTITY ns_flows "http://ns.adobe.com/Flows/1.0/">
]>
<svg version="1.1"
	 xmlns="http://www.w3.org/2000/svg" xmlns:xlink="http://www.w3.org/1999/xlink" xmlns:a="http://ns.adobe.com/AdobeSVGViewerExtensions/3.0/"
	 x="0px" y="0px" width="16px" height="17px" viewBox="-0.321 0.322 16 17" enable-background="new -0.321 0.322 16 17"
	 xml:space="preserve">
<defs>
</defs>
<path fill="#808080" d="M6.658,12.785L6.658,12.785c-1.312-0.001-1.501-0.001-1.57-0.004l0,0c-1.157-0.041-2.022-0.383-2.556-1.026
	l0,0c-0.528-0.642-0.663-1.449-0.664-2.275l0,0c0-0.451,0.041-0.917,0.1-1.396l0,0C2.113,6.931,2.35,5.817,3.025,4.934l0,0
	c0.676-0.892,1.808-1.426,3.378-1.415l0,0c0.058,0,5.388,0.001,5.469,0.002l0,0c1.184,0.025,2.063,0.354,2.609,0.995l0,0
	c0.544,0.639,0.68,1.453,0.683,2.282l0,0c0,0.459-0.044,0.937-0.104,1.423l0,0c-0.144,1.149-0.374,2.262-1.044,3.147l0,0
	c-0.671,0.893-1.803,1.427-3.376,1.417l0,0l-0.578,0.002c-0.023,0.234-0.038,0.454-0.038,0.656l0,0
	c-0.083,1.227,0.465,1.775,1.084,1.846l-0.126,0.689c-0.323-0.026-1.353-0.011-2.363-0.548C8.619,15.43,6.721,14.559,6.658,12.785z
	 M10.638,11.645c1.357-0.011,2.019-0.39,2.475-0.969l0,0c0.455-0.586,0.688-1.505,0.817-2.591l0,0
	c0.056-0.464,0.094-0.899,0.094-1.286l0,0c0.001-0.712-0.131-1.225-0.406-1.541l0,0c-0.271-0.314-0.759-0.569-1.778-0.597l0,0
	c-0.002-0.001-5.4-0.003-5.436-0.003l0,0C5.053,4.67,4.388,5.048,3.928,5.629l0,0c-0.462,0.59-0.699,1.508-0.829,2.593l0,0
	C3.044,8.674,3.007,9.101,3.007,9.479l0,0c-0.001,0.709,0.13,1.226,0.401,1.546l0,0c0.27,0.319,0.741,0.574,1.725,0.617l0,0
	c0.002,0.001,2.623,0.003,2.623,0.003l-0.012,1.063C7.798,13.543,8,14.361,9.478,15.008c0,0-0.653-0.803-0.514-2.266l0.098-1.089
	l1.574-0.007"/>
<rect id="_x3C_Slice_x3E__1_" fill="none" width="16" height="17"/>
</svg>
